<svg xmlns="http://www.w3.org/2000/svg" viewBox="0 0 24 24">
  <path d="M23.6 9.5l-.8-2.5-1.7-5.2c-.1-.5-.6-.7-1.1-.5-.3.1-.5.4-.5.5l-1.6 5.2H6.1L4.4 1.8c-.1-.5-.6-.7-1.1-.5-.3.1-.5.4-.5.5L1.2 7l-.8 2.5c-.1.4 0 .9.4 1.2l10.5 7.6 10.5-7.6c.6-.3.7-.8.5-1.2" fill="#FC6D26"/>
  <path d="M12 21.1l4-12.3H8l4 12.3z" fill="#E24329"/>
  <path d="M12 21.1l-4-12.3H1.2l10.8 12.3z" fill="#FC6D26"/>
  <path d="M1.2 9.5L.4 7.1c-.1-.5 0-.9.4-1.2L12 21.1 1.2 9.5z" fill="#FCA326"/>
  <path d="M1.2 9.5H8L4.4 1.8c-.1-.5-.6-.7-1.1-.4-.3.1-.5.4-.5.5L1.2 9.5z" fill="#E24329"/>
  <path d="M12 21.1l4-12.3h6.8L12 21.1z" fill="#FC6D26"/>
  <path d="M22.8 9.5l.8-2.5c.1-.5 0-.9-.4-1.2L12 21.1l10.8-11.6z" fill="#FCA326"/>
  <path d="M22.8 9.5h-6.8l1.6-5.2c.1-.5.6-.7 1.1-.4.3.1.5.4.5.5l1.6 5.1h2z" fill="#E24329"/>
</svg>