<?xml version="1.0" standalone="no"?><!DOCTYPE svg PUBLIC "-//W3C//DTD SVG 1.1//EN" "http://www.w3.org/Graphics/SVG/1.1/DTD/svg11.dtd"><svg t="1742459650657" class="icon" viewBox="0 0 1024 1024" version="1.1" xmlns="http://www.w3.org/2000/svg" p-id="5594" xmlns:xlink="http://www.w3.org/1999/xlink" width="200" height="200"><path d="M722.517333 363.477333a44.544 44.544 0 0 1 12.928 9.813334l100.224-44.586667-93.525333-92.629333-20.949333 126.037333zM514.56 279.296a55.68 55.68 0 0 1 8.917333 24.490667l149.205334 63.232a44.544 44.544 0 0 1 15.146666-7.552l24.490667-151.466667-90.88-95.317333-106.88 164.352v2.261333z m509.141333 234.282667l-159.914666-159.914667-108.714667 44.544 267.264 113.578667s2.261333 1.792 1.365333 1.792z m-26.752 25.856l-256.554666-109.610667a44.544 44.544 0 0 1-29.866667 17.365333l-27.605333 168.832a44.544 44.544 0 0 1 12.928 31.189334l155.008 32.512 142.08-141.226667v-2.645333zM657.066667 394.666667l-139.434667-59.306667a51.2 51.2 0 0 1-44.544 23.168h-8.490667L349.226667 536.746667l308.266666-133.632v0.426666a37.845333 37.845333 0 0 1 0-7.125333 2.218667 2.218667 0 0 0-0.426666-1.749333z m169.258666 311.808l-136.32-28.074667a46.762667 46.762667 0 0 1-19.626666 14.677333l-32.469334 201.386667 189.312-187.562667s-0.426667 0.853333-0.896 0.853334z m-190.677333-13.824a44.544 44.544 0 0 1-26.282667-30.293334l-253.866666-52.138666-3.584 5.802666 230.314666 333.226667 13.781334-13.824 39.210666-241.92s1.322667 0.938667 0.426667 0.469333z m-274.816-113.152l250.794667 51.669333a44.544 44.544 0 0 1 35.157333-22.272l27.178667-166.144-5.76-4.906667-311.808 133.632a77.525333 77.525333 0 0 1 4.437333 8.021334z m-105.130667 41.856l-5.333333-5.333334-108.245333 44.544 52.565333 52.138667 59.690667-92.672z m71.253334 16.938666a58.368 58.368 0 0 1-24.021334 5.333334 59.264 59.264 0 0 1-19.2-3.114667l-65.877333 95.786667 288.64 285.952 50.773333-50.346667z m-40.533334-112.682666a72.618667 72.618667 0 0 1 13.397334 0 58.794667 58.794667 0 0 1 14.677333 0l116.693333-181.333334a50.773333 50.773333 0 0 1-14.250666-35.157333 52.992 52.992 0 0 1 0-11.562667l-141.653334-65.493333-114.005333 110.933333z m12.928-315.818667l138.112 58.794667a52.992 52.992 0 0 1 35.626667-12.032 57.898667 57.898667 0 0 1 16.938667 2.688l107.776-168.405334L508.714667 1.749333 299.349333 207.104s-0.426667 2.218667 0 2.688z m-51.626666 348.330667a66.816 66.816 0 0 1 10.24-14.250667L139.861333 367.488 0 503.338667l247.637333 54.784z m-11.178667 29.866666L22.741333 543.36l93.994667 95.36 118.485333-50.346667z" p-id="5595"></path></svg>